<svg id="visual" viewBox="0 0 900 600" width="900" height="600" xmlns="http://www.w3.org/2000/svg" xmlns:xlink="http://www.w3.org/1999/xlink" version="1.1"><rect x="0" y="0" width="900" height="600" fill="#ffffff"></rect><g transform="translate(469.5763396595551 307.5514447500374)"><path d="M154 -191.2C194.1 -150 217.2 -96.2 221.2 -43.5C225.2 9.3 210 60.9 185.9 111.8C161.8 162.7 128.8 212.9 82.2 232.8C35.7 252.8 -24.4 242.4 -76.3 219.3C-128.2 196.2 -171.9 160.4 -207.1 113C-242.2 65.6 -268.8 6.8 -258.9 -45C-249 -96.8 -202.6 -141.5 -153.4 -181.1C-104.1 -220.8 -52.1 -255.4 2.5 -258.3C57 -261.3 114 -232.5 154 -191.2" fill="#715DF2"></path></g></svg>