<svg id="visual" viewBox="0 0 900 600" width="900" height="600" xmlns="http://www.w3.org/2000/svg" xmlns:xlink="http://www.w3.org/1999/xlink" version="1.1"><rect x="0" y="0" width="900" height="600" fill="#ffffff"></rect><g transform="translate(426.25255897206216 295.65151399342625)"><path d="M175.7 -199.5C224.9 -168 260.2 -110.1 269.8 -48.6C279.5 12.9 263.6 78 230.8 131.8C198 185.5 148.2 228.1 94.1 239.5C40 250.9 -18.5 231.2 -70.4 206.6C-122.3 182 -167.7 152.5 -194.4 110.3C-221.1 68.1 -229.2 13.1 -223.3 -42.6C-217.4 -98.4 -197.4 -154.9 -157.8 -188.1C-118.3 -221.3 -59.1 -231.1 2 -233.6C63.2 -236 126.4 -231 175.7 -199.5" fill="#715DF2"></path></g></svg>